<?xml version="1.0" encoding="UTF-8"?>
<svg id="Layer_1" data-name="Layer 1" xmlns="http://www.w3.org/2000/svg" viewBox="0 0 430.87 61.94">
  <defs>
    <style>
      .cls-1 {
        fill: #e8b124;
        stroke-width: 0px;
      }
    </style>
  </defs>
  <path class="cls-1" d="M57.38,11.38c-4.44,6.59-5.78,16.85-6.11,22.37-.15,2.4.12,4.56.47,6.22.25.07.51.14.75.22,0,0,3.5,1.5,2.88,5.13-.63,3.63-1.6,6.6-3.83,7.76-2.7,1.4-5.14.74-7.48.39-1.94-.3-4.56-.55-7.59-.61.39,2.08.67,3.31.67,3.31,0,0-6.28,2.22-10.1,2.22-2.41,0-3.25-4.22-3.25-4.22-.03-.12-.05-.24-.08-.36-3.81.67-7.76,1.75-11.56,3.41,0,0-3.5,2-5.51,0-2-2-5.63-7.01-6.13-7.63-.5-.63-1.75-3.75,3.13-5.76.05-.02.11-.04.15-.06-.67-1.52-.92-2.79-.92-2.79C-.04,26.26,1.5,15.94,3.38,8.44,5.26.95,11.06.77,12.95.98c1.9.21,9.36,1.84,5.99,9.04-3.37,7.2-3.1,17.54-2.58,23.05.01.14.03.27.05.4.11.79.38,1.84.97,2.34.57.48,1.88.6,2.9-.08.65-.43.8-1.5.83-2.18-.41-7.69-.15-13.45-.05-14.82.18-2.46.95-4.49,2.69-5.96,1.23-1.04,13.29-5.11,11.2,7.5-.73,4.44-.86,9.3-.67,13.98.09.94.94,1.41,1.95,1.13.79-.21,1.04-.75,1.11-1.05.16-12.06,2.64-20.46,5.6-26.72,3.31-6.99,8.08-6.61,9.92-6.11,1.84.5,8.96,3.26,4.52,9.86h0ZM5.65,40.62s-.53-5.71-.17-8.53c.13-1.03-1.04-.98-1.11-.1-.14,1.72.1,5.22,1.28,8.63ZM33.4,20.24c0-1.97.28-5.36-3.25-6.87,0,0,3.05,2.02,2.13,6.95-.19,1.01,1.12.79,1.12-.09h0ZM43.99,12.19c.2-.43,3.16-5.15,5.46-6.55.88-.54-.09-1.36-.77-.81-1.81,1.45-3.35,4.01-4.69,7.36h0ZM50.68,50.55c-.86,1.27-1.81,1.62-1.81,1.62,1.63-.27,2.59-1.1,2.75-1.59.14-.41-.31-.96-.94-.03Z"/>
  <path class="cls-1" d="M106.91,55.96c-3.29,3.21-8.45,3.13-10.64,2.2-3.61-1.53-4.4-8.07-4.4-8.07,0,0-8.73,3.02-14.59-.98,0,0-.74,5.34-2.16,7.09-2.08,2.57-6.4,2.49-10.68.41-4.28-2.08-4.97-4.45-3.5-12.64,1.61-9.02,7.58-28.82,7.59-28.82,0,0-4.36-1.02-5.88-4.69-1.35-3.23-.33-9.47,2.24-10.31,2.53-.82,5.03,1.79,7.02,2.48,5.11,1.77,22.01,2.12,26.7,0,1.7-.77,3.55-3.03,5.56-1.82,2.18,1.31,3.15,7.97,1.78,10.31-2.28,3.91-5.99,4.6-5.99,4.6,0,0,5.99,23.12,7.09,28.74,1.1,5.63,2.32,9.11-.12,11.5ZM70.64,18.95c.9-1.82-.96-1.92-1.23-.87-.46,1.79-1.07,4.3-1.94,7.34,0,0,2.04-4.18,3.17-6.47h0ZM89.42,29.78c-1.11-4.83-3.62-14.43-5.87-10.76-1.52,2.49-3.47,9.41-3.92,11.33-.48,2.09-.67,4.69,4.04,5.3,5.97.78,6.85-1.11,5.75-5.88ZM88.18,37.89s-3.11.61-5.73-.13c-1.7-.48-1.91,1.13-.38,1.27,1.41.13,4.86-.29,6.11-1.14ZM102.93,3.73c.68.84.78,2.39.78,2.39.3-.96.52-1.72.29-2.83-.31-1.51-1.92-.61-1.07.44Z"/>
  <path class="cls-1" d="M165.01,6.56s-1.13,2.9-1.52,4.07c-4.99,14.76-3.37,39.92-3.35,40.17.13,1.96-.56,3.89-1.9,5.33-1.34,1.44-3.23,2.25-5.19,2.25h-7.19c-8.44,0-14.27-8.32-18.55-17.71-.8,4.22-1.75,8.44-2.87,12.36-1.08,3.77-5.02,5.96-8.79,4.87-2.83-.81-6.6-5.85-5.81-6.83.53-.65.67-1.02.94-1.96,4.82-16.8,6.22-40.91,6.23-41.15.2-3.53,2.96-6.38,6.49-6.68,3.52-.3,6.74,2.03,7.54,5.47.02.09,2.14,9.13,5.48,18.6,4.35,12.34,7.69,16.76,9.18,18.24-.12-9.63.38-25.77,4.35-37.5,1.25-3.72,5.29-5.71,9.01-4.46,2.55.86,4.99,2.15,5.98,4.94h0ZM122.81,48.7s-.77,2.95-2.18,4.94c-.95,1.35-.03,1.5.74.62.85-.97,1.44-4,1.44-5.57ZM134.93,30.85c.48.94,1.81.45,1.19-.63-1.69-2.96-3.74-9.53-3.74-9.53.26,4.32,1.61,8.32,2.55,10.15h0ZM153.51,6.56c.93-1.33.03-1.49-.73-.62-.84.95-1.43,3.94-1.42,5.49,0,0,.75-2.91,2.15-4.88h0ZM154.66,55.75c1.84-1.13,2.55-2.24,2.57-2.78.02-.46-.6-.9-.97.24-.51,1.54-1.6,2.55-1.6,2.55h0Z"/>
  <path class="cls-1" d="M208.13,17.46c-3.36-1.52-11.34-1.84-19.78-1.32,0,5.88.14,22.35.65,24.69.22,1-1.12,1.33,6.85,1.52,2.04.05,4.08.03,5.99-.03.17-3.31.3-3.42.3-5.58,0-4.04-4.23-8.19,1.12-9.2,4.08-.77,10.99-.19,10.99,4.97v25.74c0,1.31-3.21,3.94-7.8,3.66-3.47-.21-4.75-1.28-5.04-4.34-12.61.4-20.71-2.41-24.7-6.14-4.03-3.78-4.22-13.04-4.31-17.72-.07-3.47-.04-10.72-.02-14.27-1.23.64-2.51,1.07-3.81.65-2.73-.89-3.81-6.85-2.38-10.28,1.62-3.9,6.25-4.98,6.25-4.99,23.13-4.85,37.11-.6,37.11-.6,0,0,4.48.51,6.36,4.88,1.14,2.65.43,8.9-1.89,10.29-2.14,1.29-4.1-1.12-5.91-1.94h0ZM177.8,48.24c-1.75-1.8-2.4-4.56-2.4-4.56.09,2.48,1.2,4.38,1.93,5.31.65.83,1.6.41.47-.75ZM210.61,6.56c-2.41-.92-6.65-1.67-10.72-1.38,0,0,6.67.63,9.95,2.38,1.58.84,2.1-.5.78-1h0ZM202.79,32.51c1.09,2.41.96,6.06.96,6.06.88-2.71.42-5.36.02-6.54-.32-.94-1.61-.9-.99.48Z"/>
  <path class="cls-1" d="M274.46,18.95c2.24,2.34,3.3,8.28-.93,13.22-1.96,2.28-3.97,3.77-6.25,4.76v12.54c0,1.06-1.86,8.33-8.86,8.93h-22.14c-11.12,0-14.31-9.88-14.31-15.88v-4.5c-1.42-.12-2.56-.51-2.67-2-.22-2.79-.44-8.19-.1-11.67,0,0,1.42-2.06,2.67-2.04h.11v-10.52c0-1.91,2.75-8.25,8.86-8.94h22.14c11.12,0,14.3,9.88,14.3,15.88v2.18c.35-.17.67-.35.93-.55,1.57-1.16,4.62-3.12,6.25-1.42h0ZM221.98,24.85v-.91c-.22.09-.41.18-.53.27-.46.33-.21,1.03.53.64ZM232.84,54.7s-3.12-.36-5.03-5.9c-.65-1.86-1.61-.74-1.29.54.52,2.13,2.74,5.15,6.33,5.36ZM255.52,42.23v-3.48c-5.3.05-14.59-.18-21.77-.38v.52c0,2.88,1.53,7.63,6.88,7.63h10.64c3.37-.29,4.26-3.78,4.26-4.29ZM233.75,19.01v3.59c7.97.19,17.72.4,21.77.38v-.63c0-2.89-1.53-7.63-6.88-7.63h-10.64c-2.94.33-4.26,3.38-4.26,4.29h0ZM255.01,13.34c-.69-.71-1.87-.09-.69.86,2.59,2.09,3.03,5.34,3.03,5.34-.24-3.61-1.48-5.3-2.35-6.2h0ZM269.09,31.31c-.49.67-1.13,1.23-1.81,1.76v1.4c1.39-.75,2.39-1.58,2.92-2.29.93-1.26.07-2.46-1.11-.87Z"/>
  <path class="cls-1" d="M333.04,18.95c2.24,2.34,3.3,8.28-.93,13.22-1.96,2.28-3.97,3.77-6.25,4.76v12.54c0,1.06-1.86,8.33-8.86,8.93h-22.14c-11.12,0-14.3-9.88-14.3-15.88v-4.5c-1.42-.12-2.56-.51-2.67-2-.22-2.79-.44-8.19-.1-11.67,0,0,1.42-2.06,2.67-2.04h.11v-10.52c0-1.91,2.75-8.25,8.86-8.94h22.14c11.12,0,14.3,9.88,14.3,15.88v2.18c.35-.17.67-.35.93-.55,1.57-1.16,4.62-3.12,6.25-1.42h0ZM280.56,24.85v-.91c-.22.09-.41.18-.53.27-.46.33-.21,1.03.53.64ZM291.42,54.7s-3.12-.36-5.03-5.9c-.65-1.86-1.61-.74-1.29.54.52,2.13,2.74,5.15,6.33,5.36ZM314.09,42.23v-3.48c-5.3.05-14.59-.18-21.77-.38v.52c0,2.88,1.53,7.63,6.88,7.63h10.64c3.37-.29,4.26-3.78,4.26-4.29ZM292.33,19.01v3.59c7.97.19,17.72.4,21.77.38v-.63c0-2.89-1.53-7.63-6.88-7.63h-10.64c-2.94.33-4.26,3.38-4.26,4.29h0ZM313.59,13.34c-.69-.71-1.87-.09-.69.86,2.59,2.09,3.03,5.34,3.03,5.34-.24-3.61-1.48-5.3-2.35-6.2h0ZM327.67,31.31c-.49.67-1.13,1.23-1.81,1.76v1.4c1.39-.75,2.39-1.58,2.92-2.29.93-1.26.07-2.46-1.11-.87Z"/>
  <path class="cls-1" d="M370.76,25.87c4.22-.45,11.29,1.66,11.07,11.29-.23,9.64-5.87,15.89-14.31,19.12-10.02,3.84-22.72,1.74-27.11-.83-4.75-2.79-3.01-11.6-1.43-13.25,1.58-1.66,3.07-3.23,11.6-.3,4.46,1.53,9.19.6,11.29,0,2.11-.6,1.81-2.79,0-2.56-1.81.23-8.43,1.81-17.84-2.26-9.41-4.07-7.3-14.99-6.48-17.7.52-1.69,1.55-3.81,2.27-5.17-1.77-1.81-2.47-3.26-2.47-3.26-1.13-2.41,1.86-6.06,4.1-8.3,2.24-2.24,3.87-1.46,4.54-1.24.67.22,3.59,2.8,3.59,2.8,8.09,5.94,16.55,2.46,19.69,1.01,3.14-1.46,5.94-.39,7.29.56,1.35.95,3.7,3.31,4.32,4.38.62,1.06,0,2.32,0,2.32-2.13,3.55-7.07,8.96-22.87,8.61-1.67-.04-3.21-.18-4.64-.4-.9,2.3-1.31,5.21,1.35,6.83,4.82,2.94,11.82-1.21,16.04-1.66h0ZM346.91,34.93s-2.72-1.62-4.18-3.93c-.95-1.5-2.18-.44-1.13.69.96,1.05,3.82,3.03,5.31,3.23ZM370.01,51.62s-7.37,2.39-10.29,2.22c-1.8-.1-1.61,1.44-.06,1.22,1.29-.18,4.77-.67,10.35-3.44ZM370.75,6.36s3.28.2,5.56,2.62c1.04,1.1,1.57-.12.8-.75-.96-.8-2.74-1.9-6.36-1.87Z"/>
  <path class="cls-1" d="M429.97,6.58c1.12,2.74.87,6.9.87,6.9-3.26,4.5-16.63,6.18-30.42,5.17-.06.54-.11,1.09-.16,1.66-.14,1.79-.25,3.89-.37,5.9,2.2.64,4.61.59,6.59.58,11.47-.06,15.1-1.74,15.85-2.09,2.3-1.06,2.98,1.59,3.02,5.31.03,2.56-.79,5.66-4.12,6.56-4.59,1.23-14.97,1.93-21.91,1.23.05,2.17.37,5.42,3.31,7.72,3.61,2.82,10.91,1.41,14.55,1.21,3.26-.17,8.28-1.82,10.26-1.37,2.01.45,2.38,2.94,2.4,4.6.05,3.46-.33,6.39-.33,6.39-7.19,3.46-22.85,3.4-30.42.95-7.94-2.58-11.14-7.73-12.23-12.6-.59-2.64-.68-5.47-.8-8.45-.67-.4-1.51-.85-1.51-.85-.25-4.97-.24-6.79-.13-9.8.06-1.65.02-1.73,1.45-1.45.53.11,1.25.26,1.38.31.16-1.62.29-3.56.49-7.26-1.11-.34-2.66-.64-2.67-.91-.06-.97.21-3.17.41-5.21.3-3,.76-6.02,1.16-5.93.38.09,1.65.31,2.18.42.21-2.63.81-4.1,4.36-3.17,2.74.72,5.36.75,7.67,1.04,1.51.19,1.75,1.77,1.5,3.8,7.63.43,16.55.13,21.91-2.5,4-1.96,5.15.48,5.7,1.83h0ZM388.57,39.83c.13-1.05-.88-1.16-.88-.34,0,1.31.14,3.07.75,4.41,0,0-.24-1.14.13-4.07ZM415.65,56.84c3.57.1,8.34-.56,10.75-1.51,1.32-.52.82-1.78-.65-1.08-3.67,1.75-10.1,2.59-10.1,2.59ZM421.19,35.52c1.3-.56,2.01-1.18,2.22-1.59.27-.53-.44-1.07-.9.1-.35.9-1.33,1.49-1.33,1.49ZM428.23,6.76c-.49-1.33-1.62-.87-.8.52,1.09,1.86,1.55,5.1,1.55,5.1.28-1.57-.29-4.4-.75-5.62Z"/>
</svg>